<svg width="31" height="18" viewBox="0 0 31 18" fill="none" xmlns="http://www.w3.org/2000/svg">
<path d="M0.517045 0.545454H5.06818L9.875 12.2727H10.0795L14.8864 0.545454H19.4375V18H15.858V6.6392H15.7131L11.196 17.9148H8.75852L4.24148 6.59659H4.09659V18H0.517045V0.545454ZM22.4255 18H16.238V0.545454H22.4766C24.2323 0.545454 25.7437 0.894886 27.0107 1.59375C28.2778 2.28693 29.2522 3.28409 29.934 4.58523C30.6215 5.88636 30.9653 7.44318 30.9653 9.25568C30.9653 11.0739 30.6215 12.6364 29.934 13.9432C29.2522 15.25 28.2721 16.2528 26.9937 16.9517C25.7209 17.6506 24.1982 18 22.4255 18ZM19.9283 14.8381H22.2721C23.363 14.8381 24.2806 14.6449 25.0249 14.2585C25.7749 13.8665 26.3374 13.2614 26.7124 12.4432C27.0931 11.6193 27.2834 10.5568 27.2834 9.25568C27.2834 7.96591 27.0931 6.91193 26.7124 6.09375C26.3374 5.27557 25.7778 4.6733 25.0334 4.28693C24.2891 3.90057 23.3715 3.70739 22.2806 3.70739H19.9283V14.8381Z" fill="white"/>

<style>
    @media (prefers-color-scheme: dark) {
        path {
            fill: white;
        }
    }
    @media (prefers-color-scheme: light) {
        path {
            fill: black;
        }
    }
  </style>
</svg>
